PathFileType	4	(X/Y/Z)	C:/Users/opensim2020/Desktop/walking_exp_matlab/subject02_walking04_straight_04.trc																																																																																																																												
DataRate	CameraRate	NumFrames	NumMarkers	Units	OrigDataRate	OrigDataStartFrame	OrigNumFrames																																																																																																																								
100	100	9	42	mm	100	3103	239																																																																																																																								
Frame#	Time	LFHD			RFHD			LBHD			RBHD			C7			T10			CLAV			STRN			RBAK			LSHO			LUPA			LELB			LFRM			LWRA			LWRB			LFIN			RSHO			RUPA			RELB			RFRM			RWRA			RWRB			RFIN			LASI			RASI			LPSI			RPSI			LTHI			LKNE			LTIB			LANK			LHEE			LTOE			RTHI			RKNE			RTIB			RANK			RHEE			RTOE			*39			*40			*41		
		X1	Y1	Z1	X2	Y2	Z2	X3	Y3	Z3	X4	Y4	Z4	X5	Y5	Z5	X6	Y6	Z6	X7	Y7	Z7	X8	Y8	Z8	X9	Y9	Z9	X10	Y10	Z10	X11	Y11	Z11	X12	Y12	Z12	X13	Y13	Z13	X14	Y14	Z14	X15	Y15	Z15	X16	Y16	Z16	X17	Y17	Z17	X18	Y18	Z18	X19	Y19	Z19	X20	Y20	Z20	X21	Y21	Z21	X22	Y22	Z22	X23	Y23	Z23	X24	Y24	Z24	X25	Y25	Z25	X26	Y26	Z26	X27	Y27	Z27	X28	Y28	Z28	X29	Y29	Z29	X30	Y30	Z30	X31	Y31	Z31	X32	Y32	Z32	X33	Y33	Z33	X34	Y34	Z34	X35	Y35	Z35	X36	Y36	Z36	X37	Y37	Z37	X38	Y38	Z38	X39	Y39	Z39	X40	Y40	Z40	X41	Y41	Z41	X42	Y42	Z42
																																																																																																																															
180	1.79	601.56854	1700.16516	-1526.69202	584.61902	1683.11255	-1383.9646	461.24359	1649.07642	-1547.98352	432.60516	1633.37512	-1407.13538	380.05875	1506.76318	-1464.86145	329.77042	1225.48889	-1452.76843	517.36554	1435.49854	-1486.7345	573.11584	1268.15674	-1473.47559	327.56796	1330.30273	-1390.0675	429.98035	1473.49292	-1649.13977	385.39682	1279.86768	-1729.75171	361.26929	1143.46484	-1744.21497	342.45526	1016.77783	-1771.82849	379.62872	879.74384	-1771.67029	327.96494	895.19684	-1789.50867	330.93845	829.01709	-1802.35718	472.82065	1476.79749	-1285.48962	470.62946	1286.34839	-1194.9104	511.3812	1145.28406	-1170.3783	570.08221	1039.4137	-1155.74524	648.69409	931.5965	-1180.05298	607.99194	915.24902	-1143.56213	663.14569	868.5979	-1143.76453	588.03046	987.92108	-1593.2168	577.85394	954.31293	-1339.06665	370.21729	1009.78406	-1519.22339	365.16364	1003.29968	-1403.16187	592.88306	679.98853	-1656.56104	609.12488	477.33099	-1624.81372	580.98077	283.93481	-1627.80859	607.07025	65.97614	-1593.97876	572.81146	37.8454	-1542.14941	763.78741	30.47143	-1602.58093	447.5087	656.03192	-1266.1571	411.08136	453.75552	-1276.11914	267.42099	331.28122	-1278.61694	141.98955	186.24586	-1315.64502	93.18383	165.0083	-1378.78662	210.15677	35.81572	-1302.87195	504.32309	1783.71948	-1446.36511	-2845.15601	1033.82324	3360.25	NaN	NaN	NaN
181	1.8	610.38812	1701.1554	-1528.75781	593.44012	1684.41443	-1386.03162	469.9238	1650.15747	-1550.32227	441.42078	1634.69629	-1409.28455	388.69312	1507.62854	-1466.70667	338.94244	1226.39648	-1454.98853	526.39758	1436.95386	-1488.85718	582.52124	1269.6969	-1476.14368	336.39252	1331.29224	-1391.95654	438.39966	1475.23975	-1650.82947	395.79813	1281.44617	-1732.43311	373.2605	1144.92053	-1747.79944	356.9194	1017.83826	-1775.76184	396.59793	881.22522	-1775.39929	344.71265	896.14447	-1793.75342	348.83566	829.90387	-1806.6449	481.76849	1477.99487	-1287.64331	479.36649	1287.54688	-1197.22266	518.56018	1145.98865	-1173.77087	576.61121	1039.42676	-1158.59436	653.57697	930.64124	-1183.35193	612.73889	914.8222	-1146.56104	666.98907	867.10364	-1147.30652	597.26306	990.07379	-1596.39111	587.23767	955.72736	-1343.20093	379.87524	1010.3443	-1521.80457	374.49466	1004.34186	-1405.7135	600.85779	680.76233	-1658.53455	613.19611	477.10175	-1626.47937	581.59161	284.008	-1627.23743	607.15112	65.9112	-1593.89111	572.6275	38.15187	-1542.25415	763.98285	30.22866	-1602.46387	460.92783	655.65851	-1267.93591	428.67535	453.45758	-1275.7644	283.71378	334.39255	-1278.30078	155.92038	191.98798	-1315.64856	107.00121	173.36736	-1379.34253	214.86156	37.64734	-1303.93701	513.15424	1784.88818	-1448.74524	-2845.0603	1033.88794	3360.18018	NaN	NaN	NaN
182	1.81	619.07312	1702.09265	-1530.66296	602.20465	1685.75537	-1388.00659	478.76276	1651.21851	-1552.34338	450.12982	1636.04395	-1411.22803	397.5675	1508.6925	-1468.52063	348.01114	1227.44531	-1457.21411	535.45709	1438.42542	-1490.8418	591.75647	1271.22937	-1478.58545	345.82895	1332.25085	-1393.42175	446.98828	1476.96411	-1652.50513	406.21109	1282.98254	-1735.08948	385.46634	1146.16589	-1751.14258	371.65698	1018.58948	-1779.00891	413.69522	883.15033	-1779.42346	361.74213	896.95636	-1797.74133	367.14587	830.97223	-1811.01135	490.69098	1479.04895	-1289.64441	488.30978	1288.56799	-1199.34875	525.18951	1146.41956	-1177.22742	582.06921	1039.33325	-1161.89478	658.08862	929.36749	-1186.56519	617.43488	914.44183	-1149.44348	671.30267	865.89081	-1150.63965	606.25446	991.65222	-1599.37463	596.39404	957.05206	-1346.77966	389.30246	1010.97235	-1524.47583	383.37451	1005.4223	-1408.38928	607.9303	681.336	-1660.09985	616.45483	477.12766	-1628.04395	582.15057	284.29807	-1627.42859	607.172	65.93967	-1593.90845	572.55176	38.10704	-1542.18335	764.06177	30.0572	-1602.44617	474.29443	654.96259	-1269.65125	446.62851	453.40942	-1275.43433	300.64731	337.13287	-1278.29089	170.21686	197.61816	-1315.9928	120.98478	181.49792	-1380.42542	221.79395	41.17041	-1304.57104	521.95215	1786.13745	-1450.97461	-2845.08374	1033.81348	3360.19849	NaN	NaN	NaN
183	1.82	627.90924	1703.33984	-1532.52234	611.01227	1687.23621	-1389.89307	487.62259	1652.37012	-1554.23816	458.97742	1637.33838	-1413.38965	406.45078	1509.86609	-1470.45215	356.93631	1228.65283	-1459.57104	544.36542	1439.84058	-1492.66333	600.83759	1272.72021	-1480.81946	354.33322	1333.58203	-1395.69482	455.88211	1478.59509	-1654.15967	416.81656	1284.34949	-1737.59827	397.58429	1147.3916	-1754.66223	386.4299	1019.54816	-1782.83838	431.19598	884.9715	-1783.14941	379.0686	897.79156	-1801.62549	386.082	831.98822	-1815.20825	499.21243	1480.15576	-1291.55334	496.28445	1289.30029	-1201.70972	532.15295	1146.85583	-1180.46069	587.73578	1039.28491	-1164.88782	662.91608	928.40808	-1189.49829	622.13165	914.06403	-1152.20068	675.12012	864.41443	-1153.88696	615.10199	992.81055	-1602.08508	605.13922	958.31	-1349.6991	398.42929	1011.88037	-1527.31628	391.80984	1006.53302	-1411.35352	614.60901	681.70728	-1661.43518	619.4422	477.3938	-1629.59375	583.06421	284.89438	-1628.62402	607.15411	65.94115	-1593.99194	571.75696	38.64714	-1542.73352	764.06079	29.94971	-1602.46375	487.4686	654.35052	-1271.31921	464.40765	453.64038	-1275.27502	317.83698	339.61191	-1278.35022	184.81111	203.19005	-1317.14343	136.10706	188.41801	-1381.87866	231.70441	45.59386	-1303.19885	530.65399	1787.4624	-1453.06897	-2845.81567	1033.87927	3357.20654	NaN	NaN	NaN
184	1.83	636.73181	1704.7146	-1534.27502	619.71271	1688.69116	-1391.60242	496.45883	1653.66321	-1556.0321	467.72717	1638.79797	-1414.92786	415.5126	1511.18372	-1472.29626	365.8342	1229.97083	-1462.03662	553.31592	1441.31653	-1494.38293	609.82001	1274.21399	-1482.83838	362.8898	1334.94836	-1397.98633	464.89285	1480.13806	-1655.95886	427.3327	1285.74902	-1740.36865	409.70508	1148.54272	-1758.2074	401.14981	1020.52545	-1786.90479	448.94519	886.88739	-1786.73486	396.67566	898.54462	-1805.23181	405.20953	833.09534	-1819.17908	507.89746	1481.0625	-1293.1582	504.04968	1289.99756	-1203.96558	539.20062	1147.19312	-1183.45959	593.76477	1039.09424	-1167.51697	667.84027	927.39087	-1192.30627	626.76288	913.58942	-1154.84192	679.01477	863.04645	-1156.823	623.80432	993.58551	-1604.49805	613.54309	959.48279	-1351.94116	407.19952	1013.09344	-1530.25928	399.95309	1007.65472	-1414.50427	620.87885	682.05328	-1662.8053	622.1424	477.65198	-1631.10193	584.61053	285.34775	-1630.14941	607.11633	65.96332	-1594.05957	571.66748	38.47678	-1542.73254	764.05542	29.8741	-1602.46362	500.22672	654.02954	-1272.99377	482.14175	454.19675	-1275.56946	335.02338	342.11789	-1278.89709	200.045	208.14085	-1319.17737	152.14203	193.56963	-1385.02112	244.58464	50.87497	-1299.73938	539.43652	1788.96387	-1455.03979	-2844.91577	1033.90662	3360.07593	NaN	NaN	NaN
185	1.84	645.56201	1706.07263	-1535.86499	628.44489	1690.11072	-1393.19165	505.57458	1654.88708	-1557.33472	476.4924	1640.15601	-1416.54932	424.22025	1512.50183	-1474.24536	374.56128	1231.31787	-1464.55823	562.21021	1442.71191	-1495.94629	618.57257	1275.55835	-1484.59497	372.17047	1335.9502	-1399.70557	474.38333	1481.52673	-1657.71216	437.80844	1287.20483	-1743.21521	421.87094	1149.62122	-1761.83728	416.22812	1021.31653	-1790.5282	467.21384	888.75348	-1789.97705	414.51129	899.35272	-1808.7467	424.6268	834.34344	-1823.15125	515.87579	1482.00317	-1294.94824	512.21155	1290.64502	-1205.67456	545.95685	1147.44409	-1186.40747	599.84857	1038.89355	-1169.94702	672.50702	926.41394	-1194.87769	631.29272	913.13177	-1157.45703	682.93463	861.75336	-1159.55457	632.5484	994.05164	-1606.63428	621.66962	960.68738	-1353.54199	415.74918	1014.55444	-1533.25977	407.78867	1008.83862	-1417.7666	626.45343	682.18256	-1664.18433	624.78052	477.7753	-1632.45227	586.35748	285.58112	-1631.72803	607.11871	65.9667	-1594.19373	571.56299	38.59282	-1542.91528	764.04224	29.81853	-1602.44531	512.8631	654.60736	-1274.45996	499.8569	455.19287	-1275.76624	352.25067	344.73801	-1280.31433	215.9099	212.4305	-1322.23035	169.21367	196.07629	-1389.37964	259.98367	56.37441	-1296.35217	548.14581	1790.23669	-1456.67334	NaN	NaN	NaN	NaN	NaN	NaN
186	1.85	654.35101	1707.43628	-1537.3186	637.22559	1691.51282	-1394.59119	514.25128	1656.2522	-1559.18457	485.32401	1641.44983	-1418.32471	433.12802	1513.90222	-1476.06348	383.17041	1232.73291	-1467.19385	570.98615	1444.01111	-1497.36633	627.2738	1276.85217	-1486.15808	380.1731	1337.37244	-1402.62952	483.90512	1482.96606	-1659.57495	448.63022	1288.59473	-1745.93396	434.10117	1150.72693	-1765.40393	431.47714	1022.15179	-1794.09619	485.30533	891.14545	-1793.33618	432.5943	900.18512	-1812.04333	444.43256	835.83539	-1826.86365	524.17316	1482.91882	-1296.3147	519.50616	1291.09167	-1207.64075	552.6955	1147.77881	-1189.2533	605.24805	1038.78333	-1172.76489	677.10553	925.3703	-1197.31116	635.71643	912.72766	-1159.96741	686.73309	860.52502	-1161.95508	641.81909	994.38916	-1608.75647	629.51868	961.92462	-1354.6571	424.21942	1016.12775	-1536.28308	415.37204	1010.02716	-1421.06018	631.51807	682.19495	-1665.73279	627.44446	477.75967	-1633.6283	588.1994	285.59763	-1633.08203	607.14685	65.87921	-1594.28381	571.45422	38.54055	-1542.9967	764.03107	29.8103	-1602.46423	525.51819	655.91956	-1275.75415	517.23004	456.61093	-1276.17749	369.52707	347.32764	-1282.45337	232.76572	215.7261	-1325.73511	187.34052	196.58557	-1393.51489	277.46512	61.46294	-1292.99451	556.86407	1791.58423	-1458.23047	NaN	NaN	NaN	NaN	NaN	NaN
187	1.86	663.13458	1708.80591	-1538.63635	645.97101	1692.92542	-1395.94727	523.13092	1657.58899	-1560.5946	493.97894	1642.79553	-1419.57056	441.93777	1515.34888	-1477.88684	391.73389	1234.15552	-1469.8042	579.74664	1445.30945	-1498.6687	635.83063	1277.9856	-1487.46387	388.46085	1338.72021	-1405.26611	493.74841	1484.37219	-1661.38977	459.60019	1289.9231	-1748.59302	446.34937	1151.90759	-1768.94629	447.05466	1022.88641	-1797.23755	503.75262	893.59039	-1796.26367	450.85599	901.15112	-1815.08557	464.71341	837.47638	-1830.38611	532.23535	1483.79895	-1297.66809	526.8125	1291.58643	-1209.66956	559.56165	1148.20667	-1191.89636	610.56464	1038.56323	-1175.29407	681.93817	924.67438	-1199.41077	640.17419	912.37433	-1162.31519	690.52063	859.5188	-1164.26147	649.13068	993.72522	-1609.66528	637.18231	963.32776	-1355.42676	432.54135	1017.70667	-1539.23572	422.79355	1011.24231	-1424.34766	635.29376	681.86786	-1666.76208	630.12115	477.55679	-1634.62878	589.89789	285.47269	-1634.11646	607.16498	65.88359	-1594.35754	571.58624	38.15075	-1542.58691	763.99298	29.67519	-1602.34863	538.19434	657.45593	-1276.70459	534.61407	458.54404	-1276.63367	386.96042	349.41534	-1284.85999	250.73088	217.56731	-1329.04529	206.28955	195.99133	-1397.12903	296.94327	66.02943	-1289.36804	565.56873	1792.91113	-1459.63416	NaN	NaN	NaN	NaN	NaN	NaN
188	1.87	672.00891	1710.18347	-1539.77795	654.70099	1694.22827	-1397.07336	531.92236	1658.90955	-1561.89075	502.74561	1644.07971	-1420.88696	450.88058	1516.86072	-1479.74255	400.19107	1235.60938	-1472.42664	588.47668	1446.53979	-1499.95776	644.32733	1279.01355	-1488.64856	397.02689	1339.7832	-1407.56494	503.67697	1485.78662	-1663.16541	470.72482	1291.35107	-1751.15186	458.73035	1153.16626	-1772.4137	462.5864	1023.97205	-1800.6582	522.30951	896.33527	-1798.96655	469.32278	902.39063	-1817.99304	485.1098	839.40961	-1833.5769	540.37006	1484.6532	-1298.84192	534.10748	1292.29077	-1211.56995	566.16821	1148.70764	-1194.40894	616.5824	1038.73633	-1177.4325	686.55249	923.95349	-1201.34546	644.62103	912.18689	-1164.59314	694.19092	858.50171	-1166.28796	657.73083	993.63489	-1610.99695	644.63483	964.77173	-1356.0835	440.78802	1019.25775	-1542.05957	430.06696	1012.56244	-1427.53333	639.33698	681.82684	-1667.70129	632.6955	477.33917	-1635.52173	591.53387	285.36679	-1634.8949	607.17938	65.80983	-1594.39148	571.35278	38.81934	-1543.02368	764.00092	29.76112	-1602.38501	551.09454	659.21826	-1277.39209	551.91132	460.70642	-1277.24377	404.47556	350.96445	-1287.28174	269.38898	218.12019	-1332.07214	225.72902	194.33453	-1401.00903	317.29459	69.58844	-1286.46704	574.28503	1794.33801	-1460.87549	NaN	NaN	NaN	NaN	NaN	NaN
